{"title":"A Monster Calls (2016) 1080p BluRay x265 HEVC 10Bit AAC 5.1-DSRG","magnet":"magnet:?xt=urn:btih:a870dd6e2ca964de4d7c8e2934a69573d953b5c4&dn=A+Monster+Calls+%282016%29+1080p+BluRay+x265+HEVC+10Bit+AAC+5.1-DSRG&tr=udp%3A%2F%2Ftracker.leechers-paradise.org%3A6969&tr=udp%3A%2F%2Fzer0day.ch%3A1337&tr=udp%3A%2F%2Fopen.demonii.com%3A1337&tr=udp%3A%2F%2Ftracker.coppersurfer.tk%3A6969&tr=udp%3A%2F%2Fexodus.desync.com%3A6969","uploader":"hevcteam","categoryP":"video","categoryS":"hd___movies","size":"2521671696","seeders":"1","leechers":"4","description":"Mediainfo: \r\n\r\nVideo \r\nID                          : 1 \r\nFormat                      : HEVC \r\nFormat/Info                 : High Efficiency Video Coding \r\nFormat profile              : Main <a class=\"__cf_email__\" href=\"/cdn-cgi/l/email-protection\" data-cfemail=\"aa9b9aeae69e\">[email&#xA0;protected]</a><script data-cfhash=\"f9e31\" type=\"text/javascript\">/* <![CDATA[ */!function(t,e,r,n,c,a,p){try{t=document.currentScript||function(){for(t=document.getElementsByTagName('script'),e=t.length;e--;)if(t[e].getAttribute('data-cfhash'))return t[e]}();if(t&&(c=t.previousSibling)){p=t.parentNode;if(a=c.getAttribute('data-cfemail')){for(e='',r='0x'+a.substr(0,2)|0,n=2;a.length-n;n+=2)e+='%'+('0'+('0x'+a.substr(n,2)^r).toString(16)).slice(-2);p.replaceChild(document.createTextNode(decodeURIComponent(e)),c)}p.removeChild(t)}}catch(u){}}()/* ]]> */</script>@Main \r\nCodec ID                    : V_MPEGH/ISO/HEVC \r\nDuration                    : 1 h 48 min \r\nBit rate                    : 2 662 kb/s \r\nWidth                       : 1 920 pixels \r\nHeight                      : 804 pixels \r\nDisplay aspect ratio        : 2.40:1 \r\nFrame rate mode             : Constant \r\nFrame rate                  : 23.976 (24000/1001) FPS \r\nColor space                 : YUV \r\nChroma subsampling          : 4:2:0 \r\nBit depth                   : 10 bits \r\nBits/(Pixel*Frame)          : 0.072 \r\nStream size                 : 2.01 GiB (86%) \r\nTitle                       : A Monster Calls (2016) \r\nWriting library             : x265 2.4+6-fd01abfc7898:[Windows][GCC 6.3.0][64 bit] 10bit \r\n\r\nAudio \r\nID                          : 2 \r\nFormat                      : AAC \r\nFormat/Info                 : Advanced Audio Codec \r\nFormat profile              : LC \r\nCodec ID                    : A_AAC \r\nDuration                    : 1 h 48 min \r\nBit rate                    : 431 kb/s \r\nChannel(s)                  : 6 channels \r\nChannel positions           : Front: L C R, Side: L R, LFE \r\nSampling rate               : 48.0 kHz \r\nFrame rate                  : 46.875 FPS (1024 spf) \r\nCompression mode            : Lossy \r\nDelay relative to video     : 20 ms \r\nStream size                 : 334 MiB (14%) \r\nTitle                       : English 5.1 \r\nLanguage                    : English \r\nDefault                     : Yes \r\nForced                      : No \r\n\r\nText \r\nID                          : 3 \r\nFormat                      : PGS \r\nMuxing mode                 : zlib \r\nCodec ID                    : S_HDMV/PGS \r\nCodec ID/Info               : Picture based subtitle format used on BDs/HD-DVDs \r\nDuration                    : 1 h 44 min \r\nBit rate                    : 10.4 kb/s \r\nCount of elements           : 2478 \r\nStream size                 : 7.74 MiB (0%) \r\nTitle                       : English-PGS \r\nLanguage                    : English \r\nDefault                     : No \r\nForced                      : No \r\n\r\nMenu \r\n00:00:00.000                : en:Chapter 01 \r\n00:05:09.559                : en:Chapter 02 \r\n00:09:16.264                : en:Chapter 03 \r\n00:16:46.714                : en:Chapter 04 \r\n00:20:22.721                : en:Chapter 05 \r\n00:24:20.876                : en:Chapter 06 \r\n00:31:41.399                : en:Chapter 07 \r\n00:36:14.505                : en:Chapter 08 \r\n00:42:54.697                : en:Chapter 09 \r\n00:52:17.551                : en:Chapter 10 \r\n00:58:55.907                : en:Chapter 11 \r\n01:03:41.025                : en:Chapter 12 \r\n01:10:02.198                : en:Chapter 13 \r\n01:14:44.605                : en:Chapter 14 \r\n01:19:08.910                : en:Chapter 15 \r\n01:23:26.418                : en:Chapter 16 \r\n01:28:41.941                : en:Chapter 17 \r\n01:31:18.347                : en:Chapter 18 \r\n01:36:03.382                : en:Chapter 19 \r\n01:40:24.226                : en:Chapter 20","last_updated":"2017-05-27T08:51:41.565Z","parsed":{"xt":"urn:btih:a870dd6e2ca964de4d7c8e2934a69573d953b5c4","dn":"A Monster Calls (2016) 1080p BluRay x265 HEVC 10Bit AAC 5.1-DSRG","tr":["udp://exodus.desync.com:6969","udp://open.demonii.com:1337","udp://tracker.coppersurfer.tk:6969","udp://tracker.leechers-paradise.org:6969","udp://zer0day.ch:1337"],"infoHash":"a870dd6e2ca964de4d7c8e2934a69573d953b5c4","infoHashBuffer":{"type":"Buffer","data":[168,112,221,110,44,169,100,222,77,124,142,41,52,166,149,115,217,83,181,196]},"name":"A Monster Calls (2016) 1080p BluRay x265 HEVC 10Bit AAC 5.1-DSRG","announce":["udp://exodus.desync.com:6969","udp://open.demonii.com:1337","udp://tracker.coppersurfer.tk:6969","udp://tracker.leechers-paradise.org:6969","udp://zer0day.ch:1337"],"urlList":[]}}